<svg xmlns="http://www.w3.org/2000/svg" viewBox="-12 -12 1174 1234" width="1174" height="1234"><polygon points="0,0 680,0 680,410 1150,410 1150,1210 350,1210 350,750 0,750" fill="#ececea" fill-opacity="0.55" stroke="#d4d4d4" stroke-width="5" stroke-dasharray="16 11" stroke-linejoin="round"/><polygon points="350,410 1150,410 1150,1210 350,1210" fill="#ececea" stroke="#d4d4d4" stroke-width="3" stroke-linejoin="miter" stroke-dasharray="12 8" stroke-linecap="round"/><rect x="420" y="480" width="660" height="660" rx="0" fill="none" stroke="#d4d4d4" stroke-width="2" stroke-dasharray="6 7"/><line x1="350" y1="410" x2="350" y2="1210" stroke="#0d1b2a" stroke-width="24" stroke-linecap="butt" /><line x1="1150" y1="410" x2="1150" y2="1210" stroke="#0d1b2a" stroke-width="24" stroke-linecap="butt" /><line x1="675" y1="410" x2="675" y2="1210" stroke="#0d1b2a" stroke-width="11" stroke-linecap="butt" /><line x1="362" y1="722" x2="470" y2="722" stroke="#d4d4d4" stroke-width="2" stroke-linecap="butt" /><line x1="470" y1="722" x2="470" y2="925" stroke="#d4d4d4" stroke-width="2" stroke-linecap="butt" /><line x1="362" y1="925" x2="470" y2="925" stroke="#d4d4d4" stroke-width="2" stroke-linecap="butt" /><line x1="362" y1="745" x2="470" y2="745" stroke="#d4d4d4" stroke-width="2" stroke-linecap="butt" /><line x1="362" y1="767.5" x2="470" y2="767.5" stroke="#d4d4d4" stroke-width="2" stroke-linecap="butt" /><line x1="362" y1="790" x2="470" y2="790" stroke="#d4d4d4" stroke-width="2" stroke-linecap="butt" /><line x1="362" y1="812.5" x2="470" y2="812.5" stroke="#d4d4d4" stroke-width="2" stroke-linecap="butt" /><line x1="362" y1="835" x2="470" y2="835" stroke="#d4d4d4" stroke-width="2" stroke-linecap="butt" /><line x1="362" y1="857.5" x2="470" y2="857.5" stroke="#d4d4d4" stroke-width="2" stroke-linecap="butt" /><line x1="362" y1="880" x2="470" y2="880" stroke="#d4d4d4" stroke-width="2" stroke-linecap="butt" /><line x1="362" y1="902.5" x2="470" y2="902.5" stroke="#d4d4d4" stroke-width="2" stroke-linecap="butt" /><line x1="409" y1="760" x2="423" y2="774" stroke="#d4d4d4" stroke-width="2.5" stroke-linecap="butt" /><line x1="417" y1="756" x2="431" y2="770" stroke="#d4d4d4" stroke-width="2.5" stroke-linecap="butt" /><line x1="416" y1="768" x2="416" y2="880" stroke="#6b6b6b" stroke-width="3" stroke-linecap="butt" /><path d="M 403 880 L 416 902 L 429 880 Z" fill="#6b6b6b"/><rect x="975" y="470" width="160" height="170" rx="0" fill="none" stroke="#8a3f33" stroke-width="4" /><g stroke="#8a3f33" stroke-width="3" fill="none"><circle cx="1055" cy="522" r="22"/><rect x="1039" y="580" width="32" height="50" rx="6"/></g><rect x="1080" y="645" width="55" height="55" rx="0" fill="#0d1b2a" stroke="none" stroke-width="0" /><circle cx="750" cy="1160" r="10" fill="none" stroke="#6b6b6b" stroke-width="3"/><line x1="675" y1="768" x2="675" y2="851" stroke="#f5f5f4" stroke-width="26" stroke-linecap="butt"/><line x1="675" y1="768" x2="675" y2="851" stroke="#d4d4d4" stroke-width="2"/><line x1="675" y1="768" x2="758" y2="768" stroke="#6b6b6b" stroke-width="4"/><path d="M 675 851 A 83 83 0 0 0 758 768" fill="none" stroke="#d4d4d4" stroke-width="2.5"/></svg>