<svg xmlns="http://www.w3.org/2000/svg" viewBox="-12 -12 1174 1234" width="1174" height="1234"><polygon points="0,0 680,0 680,410 1150,410 1150,1210 350,1210 350,750 0,750" fill="#ececea" fill-opacity="0.55" stroke="#d4d4d4" stroke-width="5" stroke-dasharray="16 11" stroke-linejoin="round"/><polygon points="0,0 350,0 350,750 0,750" fill="none" stroke="#d4d4d4" stroke-width="2.5" stroke-linejoin="miter" stroke-dasharray="10 9" stroke-linecap="round"/><polygon points="350,410 1150,410 1150,1210 350,1210" fill="#ececea" stroke="none" stroke-width="0" stroke-linejoin="miter"  stroke-linecap="round"/><line x1="675" y1="410" x2="675" y2="1210" stroke="#0d1b2a" stroke-width="11" stroke-linecap="butt" /><line x1="350" y1="717" x2="675" y2="717" stroke="#0d1b2a" stroke-width="11" stroke-linecap="butt" /><line x1="350" y1="927" x2="675" y2="927" stroke="#0d1b2a" stroke-width="11" stroke-linecap="butt" /><line x1="675" y1="822" x2="1150" y2="822" stroke="#0d1b2a" stroke-width="11" stroke-linecap="butt" /><polygon points="350,410 1150,410 1150,1210 350,1210" fill="none" stroke="#0d1b2a" stroke-width="22" stroke-linejoin="miter"  stroke-linecap="round"/><g stroke="#6b6b6b" stroke-width="3.5" fill="none">
      <rect x="372" y="1098" width="230" height="92" rx="22"/>
      <rect x="386" y="1112" width="202" height="64" rx="14"/>
      <circle cx="580" cy="1144" r="5"/></g><g stroke="#6b6b6b" stroke-width="3.5" fill="none">
      <ellipse cx="615" cy="996" rx="26" ry="34"/>
      <rect x="591" y="954" width="48" height="20" rx="6"/></g><g stroke="#6b6b6b" stroke-width="3.5" fill="none">
      <rect x="396" y="936" width="68" height="52" rx="8"/>
      <ellipse cx="430" cy="964" rx="20" ry="15"/></g><line x1="455" y1="827" x2="565" y2="827" stroke="#d4d4d4" stroke-width="2" stroke-linecap="butt" /><line x1="565" y1="827" x2="565" y2="925" stroke="#d4d4d4" stroke-width="2" stroke-linecap="butt" /><line x1="405" y1="925" x2="565" y2="925" stroke="#d4d4d4" stroke-width="2" stroke-linecap="butt" /><line x1="499" y1="827" x2="499" y2="925" stroke="#d4d4d4" stroke-width="2" stroke-linecap="butt" /><line x1="521" y1="827" x2="521" y2="925" stroke="#d4d4d4" stroke-width="2" stroke-linecap="butt" /><line x1="543" y1="827" x2="543" y2="925" stroke="#d4d4d4" stroke-width="2" stroke-linecap="butt" /><line x1="460" y1="876" x2="538" y2="876" stroke="#6b6b6b" stroke-width="3" stroke-linecap="butt" /><path d="M 538 863 L 560 876 L 538 889 Z" fill="#6b6b6b"/><line x1="452" y1="722" x2="452" y2="812" stroke="#d4d4d4" stroke-width="2" stroke-linecap="butt" /><line x1="398" y1="726" x2="398" y2="800" stroke="#d4d4d4" stroke-width="2" stroke-linecap="butt" /><line x1="416" y1="726" x2="416" y2="800" stroke="#d4d4d4" stroke-width="2" stroke-linecap="butt" /><line x1="434" y1="726" x2="434" y2="800" stroke="#d4d4d4" stroke-width="2" stroke-linecap="butt" /><line x1="443" y1="748" x2="384" y2="748" stroke="#6b6b6b" stroke-width="3" stroke-linecap="butt" /><line x1="384" y1="748" x2="384" y2="793" stroke="#6b6b6b" stroke-width="3" stroke-linecap="butt" /><path d="M 371 793 L 384 815 L 397 793 Z" fill="#6b6b6b"/><line x1="437" y1="807" x2="451" y2="825" stroke="#d4d4d4" stroke-width="2.5" stroke-linecap="butt" /><line x1="445" y1="803" x2="459" y2="821" stroke="#d4d4d4" stroke-width="2.5" stroke-linecap="butt" /><path d="M 352 841 L 446 816 L 425 925" fill="none" stroke="#d4d4d4" stroke-width="2" stroke-dasharray="13 6 3 6"/><rect x="1112" y="772" width="34" height="34" rx="0" fill="#0d1b2a" stroke="none" stroke-width="0" /><line x1="475" y1="410" x2="585" y2="410" stroke="#f5f5f4" stroke-width="26" stroke-linecap="butt"/><line x1="475" y1="415" x2="585" y2="415" stroke="#6b6b6b" stroke-width="3"/><line x1="475" y1="405" x2="585" y2="405" stroke="#6b6b6b" stroke-width="3"/><line x1="845" y1="410" x2="1060" y2="410" stroke="#f5f5f4" stroke-width="26" stroke-linecap="butt"/><line x1="845" y1="415" x2="1060" y2="415" stroke="#6b6b6b" stroke-width="3"/><line x1="845" y1="405" x2="1060" y2="405" stroke="#6b6b6b" stroke-width="3"/><line x1="1150" y1="500" x2="1150" y2="700" stroke="#f5f5f4" stroke-width="26" stroke-linecap="butt"/><line x1="1145" y1="500" x2="1145" y2="700" stroke="#6b6b6b" stroke-width="3"/><line x1="1155" y1="500" x2="1155" y2="700" stroke="#6b6b6b" stroke-width="3"/><line x1="1150" y1="900" x2="1150" y2="1100" stroke="#f5f5f4" stroke-width="26" stroke-linecap="butt"/><line x1="1145" y1="900" x2="1145" y2="1100" stroke="#6b6b6b" stroke-width="3"/><line x1="1155" y1="900" x2="1155" y2="1100" stroke="#6b6b6b" stroke-width="3"/><line x1="850" y1="1210" x2="1080" y2="1210" stroke="#f5f5f4" stroke-width="26" stroke-linecap="butt"/><line x1="850" y1="1215" x2="1080" y2="1215" stroke="#6b6b6b" stroke-width="3"/><line x1="850" y1="1205" x2="1080" y2="1205" stroke="#6b6b6b" stroke-width="3"/><line x1="430" y1="1210" x2="560" y2="1210" stroke="#f5f5f4" stroke-width="26" stroke-linecap="butt"/><line x1="430" y1="1215" x2="560" y2="1215" stroke="#6b6b6b" stroke-width="3"/><line x1="430" y1="1205" x2="560" y2="1205" stroke="#6b6b6b" stroke-width="3"/><line x1="655" y1="717" x2="572" y2="717" stroke="#f5f5f4" stroke-width="26" stroke-linecap="butt"/><line x1="655" y1="717" x2="572" y2="717" stroke="#d4d4d4" stroke-width="2"/><line x1="655" y1="717" x2="655" y2="634" stroke="#6b6b6b" stroke-width="4"/><path d="M 572 717 A 83 83 0 0 1 655 634" fill="none" stroke="#d4d4d4" stroke-width="2.5"/><line x1="655" y1="927" x2="572" y2="927" stroke="#f5f5f4" stroke-width="26" stroke-linecap="butt"/><line x1="655" y1="927" x2="572" y2="927" stroke="#d4d4d4" stroke-width="2"/><line x1="655" y1="927" x2="655" y2="1010" stroke="#6b6b6b" stroke-width="4"/><path d="M 572 927 A 83 83 0 0 0 655 1010" fill="none" stroke="#d4d4d4" stroke-width="2.5"/><line x1="675" y1="727" x2="675" y2="810" stroke="#f5f5f4" stroke-width="26" stroke-linecap="butt"/><line x1="675" y1="727" x2="675" y2="810" stroke="#d4d4d4" stroke-width="2"/><line x1="675" y1="727" x2="758" y2="727" stroke="#6b6b6b" stroke-width="4"/><path d="M 675 810 A 83 83 0 0 0 758 727" fill="none" stroke="#d4d4d4" stroke-width="2.5"/><line x1="675" y1="837" x2="675" y2="920" stroke="#f5f5f4" stroke-width="26" stroke-linecap="butt"/><line x1="675" y1="837" x2="675" y2="920" stroke="#d4d4d4" stroke-width="2"/><line x1="675" y1="837" x2="758" y2="837" stroke="#6b6b6b" stroke-width="4"/><path d="M 675 920 A 83 83 0 0 0 758 837" fill="none" stroke="#d4d4d4" stroke-width="2.5"/></svg>