<svg xmlns="http://www.w3.org/2000/svg" viewBox="-12 -12 1174 1234" width="1174" height="1234"><polygon points="0,0 680,0 680,410 1150,410 1150,1210 350,1210 350,750 0,750" fill="#201c16" stroke="none" stroke-width="0" stroke-linejoin="miter"  stroke-linecap="round"/><line x1="350" y1="0" x2="350" y2="750" stroke="#8d887f" stroke-width="22" stroke-linecap="butt" /><line x1="350" y1="410" x2="680" y2="410" stroke="#8d887f" stroke-width="11" stroke-linecap="butt" /><line x1="350" y1="827" x2="680" y2="827" stroke="#8d887f" stroke-width="11" stroke-linecap="butt" /><line x1="680" y1="410" x2="680" y2="431" stroke="#8d887f" stroke-width="22" stroke-linecap="butt" /><line x1="680" y1="686" x2="680" y2="827" stroke="#8d887f" stroke-width="11" stroke-linecap="butt" /><line x1="680" y1="827" x2="680" y2="1210" stroke="#8d887f" stroke-width="11" stroke-linecap="butt" /><line x1="530" y1="1110" x2="680" y2="1110" stroke="#8d887f" stroke-width="11" stroke-linecap="butt" /><line x1="530" y1="1110" x2="530" y2="1210" stroke="#8d887f" stroke-width="11" stroke-linecap="butt" /><line x1="350" y1="1125" x2="400" y2="1125" stroke="#8d887f" stroke-width="11" stroke-linecap="butt" /><line x1="400" y1="1125" x2="400" y2="1210" stroke="#8d887f" stroke-width="11" stroke-linecap="butt" /><polygon points="0,0 680,0 680,410 1150,410 1150,1210 350,1210 350,750 0,750" fill="none" stroke="#8d887f" stroke-width="22" stroke-linejoin="miter"  stroke-linecap="round"/><line x1="70" y1="750" x2="300" y2="750" stroke="#17140f" stroke-width="26" stroke-linecap="butt"/><line x1="70" y1="750" x2="300" y2="750" stroke="#97928a" stroke-width="4.5"/><line x1="70" y1="734" x2="300" y2="734" stroke="#38332c" stroke-width="3" stroke-dasharray="14 9"/><g stroke="#c77b5e" stroke-width="4" fill="none">
        <rect x="1104" y="575" width="46" height="150"/>
        <path d="M 1118 591 L 1144 591 L 1144 709 L 1118 709"/></g><polygon points="361,551 421,551 421,761 674,761 674,821 361,821" fill="none" stroke="#97928a" stroke-width="2.5" stroke-linejoin="miter"  stroke-linecap="round"/><g transform="rotate(90 391 620)"><rect x="352" y="591" width="78" height="58" rx="6" fill="none" stroke="#97928a" stroke-width="3.5"/><circle cx="378" cy="611" r="9" fill="none" stroke="#97928a" stroke-width="3"/><circle cx="408" cy="611" r="9" fill="none" stroke="#97928a" stroke-width="3"/><circle cx="378" cy="633" r="9" fill="none" stroke="#97928a" stroke-width="3"/><circle cx="408" cy="633" r="9" fill="none" stroke="#97928a" stroke-width="3"/></g><g stroke="#97928a" stroke-width="3.5" fill="none">
      <rect x="526" y="765" width="68" height="52" rx="8"/>
      <ellipse cx="560" cy="793" rx="20" ry="15"/></g><g transform="rotate(90 639 1160)"><g stroke="#97928a" stroke-width="3.5" fill="none">
      <ellipse cx="639" cy="1168" rx="26" ry="34"/>
      <rect x="615" y="1126" width="48" height="20" rx="6"/></g></g><line x1="360" y1="919" x2="612" y2="919" stroke="#38332c" stroke-width="2" stroke-linecap="butt" /><line x1="382" y1="827" x2="382" y2="919" stroke="#38332c" stroke-width="2" stroke-linecap="butt" /><line x1="404" y1="827" x2="404" y2="919" stroke="#38332c" stroke-width="2" stroke-linecap="butt" /><line x1="426" y1="827" x2="426" y2="919" stroke="#38332c" stroke-width="2" stroke-linecap="butt" /><line x1="448" y1="827" x2="448" y2="919" stroke="#38332c" stroke-width="2" stroke-linecap="butt" /><line x1="470" y1="827" x2="470" y2="919" stroke="#38332c" stroke-width="2" stroke-linecap="butt" /><line x1="492" y1="827" x2="492" y2="919" stroke="#38332c" stroke-width="2" stroke-linecap="butt" /><line x1="514" y1="827" x2="514" y2="919" stroke="#38332c" stroke-width="2" stroke-linecap="butt" /><line x1="536" y1="827" x2="536" y2="919" stroke="#38332c" stroke-width="2" stroke-linecap="butt" /><line x1="558" y1="827" x2="558" y2="919" stroke="#38332c" stroke-width="2" stroke-linecap="butt" /><line x1="366" y1="866" x2="380" y2="880" stroke="#38332c" stroke-width="2.5" stroke-linecap="butt" /><line x1="374" y1="862" x2="388" y2="876" stroke="#38332c" stroke-width="2.5" stroke-linecap="butt" /><line x1="382" y1="873" x2="570" y2="873" stroke="#97928a" stroke-width="3" stroke-linecap="butt" /><path d="M 570 860 L 592 873 L 570 886 Z" fill="#97928a"/><path d="M 632 821 L 600 925" fill="none" stroke="#38332c" stroke-width="2" stroke-dasharray="13 6 3 6"/><line x1="680" y1="150" x2="680" y2="300" stroke="#17140f" stroke-width="26" stroke-linecap="butt"/><line x1="675" y1="150" x2="675" y2="300" stroke="#97928a" stroke-width="3"/><line x1="685" y1="150" x2="685" y2="300" stroke="#97928a" stroke-width="3"/><line x1="350" y1="764" x2="350" y2="818" stroke="#17140f" stroke-width="26" stroke-linecap="butt"/><line x1="345" y1="764" x2="345" y2="818" stroke="#97928a" stroke-width="3"/><line x1="355" y1="764" x2="355" y2="818" stroke="#97928a" stroke-width="3"/><line x1="785" y1="410" x2="1110" y2="410" stroke="#17140f" stroke-width="26" stroke-linecap="butt"/><line x1="785" y1="415" x2="1110" y2="415" stroke="#97928a" stroke-width="3"/><line x1="785" y1="405" x2="1110" y2="405" stroke="#97928a" stroke-width="3"/><line x1="1150" y1="1112" x2="1150" y2="1204" stroke="#17140f" stroke-width="26" stroke-linecap="butt"/><line x1="1145" y1="1112" x2="1145" y2="1204" stroke="#97928a" stroke-width="3"/><line x1="1155" y1="1112" x2="1155" y2="1204" stroke="#97928a" stroke-width="3"/><line x1="864" y1="1210" x2="1146" y2="1210" stroke="#17140f" stroke-width="26" stroke-linecap="butt"/><line x1="864" y1="1215" x2="1146" y2="1215" stroke="#97928a" stroke-width="3"/><line x1="864" y1="1205" x2="1146" y2="1205" stroke="#97928a" stroke-width="3"/><line x1="350" y1="880" x2="350" y2="955" stroke="#17140f" stroke-width="26" stroke-linecap="butt"/><line x1="345" y1="880" x2="345" y2="955" stroke="#97928a" stroke-width="3"/><line x1="355" y1="880" x2="355" y2="955" stroke="#97928a" stroke-width="3"/><line x1="255" y1="0" x2="338" y2="0" stroke="#17140f" stroke-width="26" stroke-linecap="butt"/><line x1="255" y1="0" x2="338" y2="0" stroke="#38332c" stroke-width="2"/><line x1="255" y1="0" x2="255" y2="-83" stroke="#97928a" stroke-width="4"/><path d="M 338 0 A 83 83 0 0 0 255 -83" fill="none" stroke="#38332c" stroke-width="2.5"/><line x1="350" y1="60" x2="350" y2="143" stroke="#17140f" stroke-width="26" stroke-linecap="butt"/><line x1="350" y1="60" x2="350" y2="143" stroke="#38332c" stroke-width="2"/><line x1="350" y1="60" x2="433" y2="60" stroke="#97928a" stroke-width="4"/><path d="M 350 143 A 83 83 0 0 0 433 60" fill="none" stroke="#38332c" stroke-width="2.5"/><line x1="658" y1="410" x2="575" y2="410" stroke="#17140f" stroke-width="26" stroke-linecap="butt"/><line x1="658" y1="410" x2="575" y2="410" stroke="#38332c" stroke-width="2"/><line x1="658" y1="410" x2="658" y2="493" stroke="#97928a" stroke-width="4"/><path d="M 575 410 A 83 83 0 0 0 658 493" fill="none" stroke="#38332c" stroke-width="2.5"/><line x1="688" y1="410" x2="771" y2="410" stroke="#17140f" stroke-width="26" stroke-linecap="butt"/><line x1="688" y1="410" x2="771" y2="410" stroke="#38332c" stroke-width="2"/><line x1="688" y1="410" x2="688" y2="493" stroke="#97928a" stroke-width="4"/><path d="M 771 410 A 83 83 0 0 1 688 493" fill="none" stroke="#38332c" stroke-width="2.5"/><line x1="680" y1="915" x2="680" y2="998" stroke="#17140f" stroke-width="26" stroke-linecap="butt"/><line x1="680" y1="915" x2="680" y2="998" stroke="#38332c" stroke-width="2"/><line x1="680" y1="915" x2="763" y2="915" stroke="#97928a" stroke-width="4"/><path d="M 680 998 A 83 83 0 0 0 763 915" fill="none" stroke="#38332c" stroke-width="2.5"/><line x1="680" y1="1081" x2="680" y2="998" stroke="#17140f" stroke-width="26" stroke-linecap="butt"/><line x1="680" y1="1081" x2="680" y2="998" stroke="#38332c" stroke-width="2"/><line x1="680" y1="1081" x2="763" y2="1081" stroke="#97928a" stroke-width="4"/><path d="M 680 998 A 83 83 0 0 1 763 1081" fill="none" stroke="#38332c" stroke-width="2.5"/><line x1="350" y1="1078" x2="350" y2="985" stroke="#17140f" stroke-width="26" stroke-linecap="butt"/><line x1="350" y1="1078" x2="350" y2="985" stroke="#38332c" stroke-width="2"/><line x1="350" y1="1078" x2="443" y2="1078" stroke="#97928a" stroke-width="4"/><path d="M 350 985 A 93 93 0 0 1 443 1078" fill="none" stroke="#38332c" stroke-width="2.5"/><line x1="545" y1="1110" x2="618" y2="1110" stroke="#17140f" stroke-width="26" stroke-linecap="butt"/><line x1="545" y1="1110" x2="618" y2="1110" stroke="#38332c" stroke-width="2"/><line x1="545" y1="1110" x2="545" y2="1183" stroke="#97928a" stroke-width="4"/><path d="M 618 1110 A 73 73 0 0 1 545 1183" fill="none" stroke="#38332c" stroke-width="2.5"/><line x1="400" y1="1130" x2="400" y2="1198" stroke="#17140f" stroke-width="26" stroke-linecap="butt"/><line x1="400" y1="1130" x2="400" y2="1198" stroke="#38332c" stroke-width="2"/><line x1="400" y1="1130" x2="468" y2="1130" stroke="#97928a" stroke-width="4"/><path d="M 400 1198 A 68 68 0 0 0 468 1130" fill="none" stroke="#38332c" stroke-width="2.5"/></svg>